<?xml version="1.0" encoding="UTF-8" standalone="no"?>
<!-- Created with Inkscape (http://www.inkscape.org/) -->

<svg
   width="200mm"
   height="200mm"
   viewBox="0 0 200 200"
   version="1.1"
   id="svg1"
   xmlns="http://www.w3.org/2000/svg"
   xmlns:svg="http://www.w3.org/2000/svg">
  <defs
     id="defs1" />
  <g
     id="layer1">
    <g
       id="g13"
       transform="matrix(0.99747553,0,0,0.99507287,0.66434297,6.015923)">
      <path
         style="fill:#ffffff;fill-opacity:1;stroke-width:0.264583"
         id="path7"
         d="m 83.625759,122.84562 c 1.377717,-10.40661 3.517723,-20.6848 5.756638,-30.933472 0.214775,-0.932593 2.201224,-9.609855 2.564616,-11.007712 0.270182,-1.03932 0.7722,-2.023682 0.920687,-3.08723 0.07736,-0.554074 -0.159732,1.388563 -0.702474,1.524262 -5.832335,1.458235 -5.872919,-2.417921 -4.83312,2.348931 1.721181,7.480483 4.339169,14.713135 7.408704,21.736291 0.37982,0.74614 0.663696,1.54948 1.139457,2.23843 1.949558,2.82315 3.668024,4.06046 7.984673,2.6495 1.94253,-0.63494 3.28947,-2.45656 4.70619,-3.92947 2.25646,-2.34595 6.75697,-8.963873 8.51903,-11.464308 1.44362,-2.132666 2.89156,-4.262416 4.33086,-6.397998 3.28211,-4.869854 6.47193,-9.802407 9.7752,-14.657755 1.7013,-2.500688 1.87825,-3.192571 1.52634,-2.026052 -2.17503,-0.737579 -4.23383,-2.054995 -6.5251,-2.212731 -0.59558,-0.041 -0.31895,1.150929 -0.45504,1.7322 -0.2779,1.186934 -0.53795,2.378096 -0.78672,3.571476 -0.7681,3.684555 -1.28928,6.40893 -1.84234,10.196972 -0.30589,2.095077 -0.54128,4.199843 -0.81193,6.299761 -0.85659,7.446082 -0.99008,14.959225 -0.64529,22.441855 0.22219,4.82177 0.57817,7.64539 1.06693,12.32124 0.59017,5.62598 8.54651,4.79136 7.95634,-0.83463 v 0 c -0.46134,-4.3816 -0.81214,-7.17378 -1.0255,-11.67564 -0.33548,-7.07886 -0.22461,-14.187939 0.58231,-21.233406 0.68207,-5.32664 0.72442,-6.22527 1.64675,-11.344466 0.72244,-4.00975 0.87986,-4.278127 1.66718,-7.999801 0.22383,-1.058053 1.30231,-2.32391 0.64186,-3.180281 -1.58264,-2.0521 -4.29755,-2.89733 -6.44632,-4.345993 -0.49949,0.467984 -1.06045,0.877983 -1.49846,1.403953 -0.63378,0.761053 -1.14289,1.61793 -1.69997,2.436794 -0.84741,1.245632 -1.67969,2.501501 -2.51329,3.756409 -3.80611,5.729716 -7.5948,11.471105 -11.48604,17.143833 -8.29303,11.799958 -0.19159,0.447082 -7.55478,10.333926 -0.48107,0.645954 -1.49009,1.189069 -1.37575,1.986322 0.11828,0.82474 1.30455,1.04218 1.89446,1.63056 0.13496,0.13461 -0.34199,-0.16845 -0.51299,-0.25268 -0.30988,-0.59883 -0.61976,-1.19766 -0.92964,-1.79649 -2.891765,-6.592678 -5.347795,-13.388335 -6.962742,-20.414358 -1.134894,-4.388657 -0.673754,-6.413601 -7.687794,-6.902146 -1.148419,-0.07999 -1.683859,1.626275 -2.221762,2.644077 -0.571402,1.081193 -0.727779,2.335974 -1.035643,3.519487 -0.368019,1.414764 -2.380938,10.21152 -2.594644,11.139813 -2.266352,10.378687 -4.434708,20.787247 -5.832039,31.325337 -0.929981,5.57989 6.961172,6.89508 7.891153,1.31519 z" />
      <path
         style="fill:#ffffff;fill-opacity:1;stroke-width:0.264583"
         id="path10"
         d="m 139.22768,60.901818 c 1.22391,5.770925 3.99308,11.130682 7.05785,16.123428 1.06534,1.735532 2.23908,3.402158 3.35861,5.103236 3.15824,4.484092 6.74422,8.637815 10.67932,12.453977 1.612,1.563274 3.75661,3.48956 5.61504,4.822925 0.80721,0.579147 1.67666,1.066206 2.515,1.599316 1.62677,1.09537 3.58859,1.38863 5.32573,2.22025 0.13984,0.0669 -0.35241,-0.0212 -0.44074,-0.14857 -1.82505,-2.6324 -1.6172,-1.90796 -1.42974,-4.136318 -3.75243,3.992898 -7.19501,8.269118 -10.94596,12.262528 -0.939,0.9997 -1.92093,1.9582 -2.88139,2.93731 -3.92977,3.95235 -8.22496,7.52514 -12.82962,10.66154 -4.67237,3.1889 -0.16259,9.79662 4.50977,6.60772 v 0 c 5.03289,-3.44095 9.73985,-7.34086 14.0356,-11.67193 1.03718,-1.06081 2.0962,-2.1007 3.11154,-3.18242 1.61889,-1.72472 3.96137,-4.4417 5.54422,-6.23924 8.75815,-9.94609 -3.38563,3.84377 4.35001,-4.84736 0.53641,-0.60267 1.0548,-1.22114 1.5822,-1.8317 0.46801,-1.0624 1.42655,-2.02651 1.40402,-3.1872 -0.0779,-4.014765 -2.79623,-4.516116 -5.57518,-5.583514 -0.51498,-0.197805 -1.01556,-0.431247 -1.52334,-0.646872 -0.59688,-0.363061 -1.21981,-0.686403 -1.79064,-1.089181 -1.63905,-1.15652 -3.46843,-2.804189 -4.88066,-4.164857 -3.57287,-3.442438 -6.82732,-7.193888 -9.6985,-11.243437 -1.03,-1.555485 -2.10772,-3.0804 -3.09,-4.66645 -2.70012,-4.359794 -5.19262,-9.032007 -6.242,-14.093465 -1.37199,-5.487956 -9.13313,-3.547671 -7.76114,1.940284 z" />
      <path
         style="fill:#ffffff;fill-opacity:1;stroke-width:0.264583"
         id="path12"
         d="m 78.067747,61.007124 c -1.824858,3.216375 -3.760753,6.373153 -5.658101,9.548341 -2.958351,4.999702 -5.609442,10.180487 -8.026183,15.462369 -1.489853,3.256132 -2.345846,5.378823 -3.714901,8.655891 -0.538805,1.269098 -1.06916,2.541818 -1.616421,3.807291 -0.510903,1.181402 -1.04988,2.350564 -1.557999,3.533164 -2.150539,5.00518 -1.22926,2.9985 -3.348697,8.16496 -0.92656,2.25864 -2.504159,5.94634 -3.467367,8.20992 -1.635392,3.88925 -3.557942,7.65445 -5.073785,11.59378 -2.022136,5.28309 5.449274,8.14282 7.471408,2.85973 v 0 c 1.464733,-3.85346 3.395485,-7.51071 4.963678,-11.32122 1.022048,-2.40204 2.548887,-5.96983 3.531052,-8.36402 2.037012,-4.96556 1.182249,-3.11801 3.24394,-7.91604 0.522613,-1.21624 1.076259,-2.41897 1.601637,-3.63402 0.553442,-1.27995 1.089832,-2.567208 1.634749,-3.850813 1.291199,-3.093381 2.158926,-5.242041 3.559654,-8.307699 2.308212,-5.051796 4.838232,-10.008611 7.66659,-14.789706 1.999734,-3.346585 4.051044,-6.668008 5.946164,-10.074219 2.529822,-5.059646 -4.625596,-8.637355 -7.155418,-3.577709 z" />
      <path
         style="fill:#ffffff;fill-opacity:1;stroke-width:0.264583"
         id="path13"
         d="m 60.68054,55.065574 c -0.150723,0.20873 -0.307224,0.413407 -0.452165,0.62619 -0.861719,1.265073 -1.676982,2.560849 -2.551909,3.817429 -0.845219,1.213911 -1.684155,2.345473 -2.558793,3.541692 -2.74954,3.762105 -5.78798,7.310728 -9.034865,10.650899 -0.435107,0.431009 -0.862661,0.869778 -1.305319,1.29303 -2.100599,2.008499 -4.259569,3.355861 -6.760247,4.800168 -2.96313,1.630577 -6.017652,3.084484 -9.059443,4.560099 -1.446195,0.704708 -2.876402,1.440601 -4.303809,2.182263 -0.49598,0.257704 -1.579587,0.792323 -2.029845,1.121235 -0.454305,0.331867 -0.860529,0.724985 -1.290794,1.087477 -0.336886,0.446987 -0.729207,0.857147 -1.010657,1.340959 -1.391309,2.391656 -0.985231,4.766603 -0.374824,7.288326 0.670262,2.277451 1.544201,4.487279 2.265547,6.748049 0.528238,1.65555 0.741738,2.48747 1.211538,4.17757 1.162118,3.96192 2.200434,7.95635 3.166784,11.96978 0.538908,2.20652 0.99692,4.43128 1.573329,6.62851 0.524321,1.77535 1.195265,3.50201 2.059337,5.13897 0.224307,0.45356 0.477829,0.88749 0.737877,1.32124 2.990073,4.80202 9.781166,0.57342 6.791091,-4.22861 v 0 c -0.215352,-0.24815 -0.27881,-0.59714 -0.472064,-0.86093 -0.588537,-1.07903 -1.00121,-2.23876 -1.379493,-3.40605 -0.565449,-2.1422 -1.000392,-4.31527 -1.532361,-6.46586 -0.988418,-4.10501 -2.05016,-8.19072 -3.237779,-12.24331 -0.538094,-1.92883 -0.729112,-2.68435 -1.335108,-4.58 -0.657698,-2.057385 -1.43309,-4.07483 -2.086093,-6.133776 -0.06504,-0.248943 -0.134258,-0.496834 -0.195131,-0.746828 -0.04027,-0.165386 -0.06217,-0.335185 -0.108236,-0.499049 -0.01318,-0.04688 -0.02568,-0.152567 -0.06835,-0.129107 -0.138455,0.07612 -0.225706,0.514388 -0.511768,0.49561 -0.320965,-0.09446 -0.181883,-0.02498 0.484911,-0.392314 0.342937,-0.188931 0.695938,-0.358989 1.043334,-0.539588 1.585646,-0.824325 0.874873,-0.46836 2.599997,-1.332817 0.497463,-0.249278 0.996206,-0.495994 1.494309,-0.74399 3.218122,-1.561161 6.449214,-3.10084 9.578724,-4.836031 1.398714,-0.812815 2.140574,-1.215763 3.493267,-2.116523 2.301277,-1.532425 4.405225,-3.316645 6.303161,-5.327973 3.498667,-3.612594 6.786509,-7.43544 9.751512,-11.500477 1.895647,-2.594054 3.741169,-5.221055 5.504339,-7.906263 3.394112,-4.525484 -3.005889,-9.325483 -6.400001,-4.8 z" />
    </g>
  </g>
</svg>
